================= Visit CBTorrents.com For More Exclusives ======================

Remember to signup on CBTorrents.com Its free and give you access to more Exclusives like this.


Ripper                           : IGUANA
Format                           : AVI
File size                        : 697 MiB
Duration                         : 1h 35mn
Overall bit rate                 : 1 024 Kbps

Video
Format                           : MPEG-4 Visual
Format profile                   : Advanced Simple@L5
Format settings, BVOP            : 2
Format settings, QPel            : No
Format settings, GMC             : No warppoints
Format settings, Matrix          : Default (H.263)
Muxing mode                      : Packed bitstream
Codec ID                         : XVID
Codec ID/Hint                    : XviD
Duration                         : 1h 35mn
Bit rate                         : 883 Kbps
Width                            : 624 pixels
Height                           : 352 pixels
Display aspect ratio             : 16:9
Frame rate                       : 23.976 fps
Color space                      : YUV
Chroma subsampling               : 4:2:0
Bit depth                        : 8 bits
Scan type                        : Progressive
Compression mode                 : Lossy
Bits/(Pixel*Frame)               : 0.168
Stream size                      : 601 MiB (86%)
Writing library                  : XviD 1.2.1 (UTC 2008-12-04)

Audio
Format                           : MPEG Audio
Format version                   : Version 1
Format profile                   : Layer 3
Mode                             : Joint stereo
Mode extension                   : MS Stereo
Codec ID                         : 55
Codec ID/Hint                    : MP3
Duration                         : 1h 35mn
Bit rate mode                    : Variable
Bit rate                         : 128 Kbps
Channel(s)                       : 2 channels
Sampling rate                    : 48.0 KHz
Compression mode                 : Lossy
Stream size                      : 87.5 MiB (13%)
Alignment                        : Aligned on interleaves
Interleave, duration             : 24 ms (0.58 video frame)
Interleave, preload duration     : 143 ms

Screens: 
http://www.bollywoodreleases.info/images/43632915762308091097.jpg

Sample included in torrent

Credit to original Ripper


Remember to signup on CBTorrents.com Its free and give you access to more Exclusives like this.

================= Visit CBTorrents.com For More Exclusives ======================